<svg version="1.1" id="Layer_1" xmlns="http://www.w3.org/2000/svg" xmlns:xlink="http://www.w3.org/1999/xlink" x="0px" y="0px"
	 width="100%" viewBox="0 0 1024 592" enable-background="new 0 0 1024 592" xml:space="preserve">
<path fill="#000000" opacity="1.000000" stroke="none" 
	d="
M426.636719,112.342293 
	C439.789520,124.125755 451.219025,136.789886 457.874664,153.101883 
	C458.189178,153.872742 458.513275,154.640701 458.796326,155.423264 
	C462.527100,165.738342 462.523956,165.736084 452.914581,170.683060 
	C437.598236,178.567993 429.692719,191.093262 429.334106,208.346588 
	C429.313965,209.316498 429.219421,210.284866 428.493805,211.407211 
	C417.852081,187.320786 411.775482,161.903854 406.244873,134.940567 
	C405.588562,167.308243 408.663971,197.973129 415.208466,228.526276 
	C413.985565,228.760025 413.291382,229.127686 412.773529,228.957779 
	C393.493347,222.631866 376.838318,212.908615 368.056702,193.433472 
	C362.159119,180.354202 362.679474,166.862976 366.342346,153.352905 
	C372.294373,131.399445 384.318756,112.672005 397.726135,94.680428 
	C399.708527,92.020248 401.397278,92.723320 403.563202,94.251274 
	C411.464905,99.825554 419.157135,105.659271 426.636719,112.342293 
z"/>
<path fill="#000000" opacity="1.000000" stroke="none" 
	d="
M255.976959,332.015839 
	C249.750824,336.774231 243.215881,339.625000 235.662735,340.437775 
	C228.237442,341.236725 221.196945,339.794556 214.367447,337.666870 
	C212.687241,339.552490 213.260788,341.471069 213.238068,343.220093 
	C213.160187,349.212433 213.270096,355.207123 213.207611,361.199860 
	C213.152618,366.473724 212.635880,366.842651 207.739868,365.283447 
	C203.778000,364.021790 199.890213,362.510925 195.892731,361.382874 
	C192.710815,360.485016 191.445648,358.945862 191.488892,355.390198 
	C191.707489,337.412445 191.553528,319.430603 191.622589,301.450531 
	C191.705780,279.795837 206.972244,263.142731 229.251862,262.050354 
	C249.141525,261.075165 266.428284,273.775116 269.943817,295.622131 
	C272.237396,309.875519 267.311554,322.186798 255.976959,332.015839 
M214.106308,307.164368 
	C214.655685,308.370850 215.078293,309.656525 215.774734,310.771118 
	C220.847855,318.890198 231.571747,321.511261 239.862762,316.710236 
	C248.176559,311.895996 251.052383,301.446564 246.411362,292.915649 
	C242.306091,285.369507 233.133453,281.824707 225.017365,284.647919 
	C216.291641,287.683197 212.017914,295.983398 214.106308,307.164368 
z"/>
<path fill="#000000" opacity="1.000000" stroke="none" 
	d="
M345.365356,268.212891 
	C356.068695,261.663849 367.109314,260.335022 378.765594,263.733032 
	C380.797852,264.325470 382.418793,264.983276 384.490448,262.789093 
	C386.775757,260.368591 390.514374,261.790314 393.596436,261.754120 
	C405.328094,261.616394 405.324799,261.692291 405.321838,273.256622 
	C405.316650,293.568420 405.175873,313.881927 405.419342,334.190796 
	C405.476776,338.981842 403.715698,340.514343 399.322052,339.998596 
	C393.953064,339.368378 388.621979,340.173981 383.095947,338.536194 
	C379.324219,337.418365 374.547516,340.159180 370.079529,340.729095 
	C349.876160,343.306152 329.011261,326.256561 327.700897,305.842773 
	C326.697174,290.205566 331.747803,277.402252 345.365356,268.212891 
M363.970093,318.807129 
	C376.151764,320.421997 384.101074,311.386993 384.659119,302.659210 
	C385.274109,293.040375 378.439636,285.118530 368.460938,283.800903 
	C360.220276,282.712799 351.440887,289.075226 349.532074,297.518738 
	C347.393982,306.976440 352.981628,315.681274 363.970093,318.807129 
z"/>
<path fill="#000000" opacity="1.000000" stroke="none" 
	d="
M454.511047,244.187881 
	C451.262115,242.475540 453.184174,240.696762 454.063110,239.085785 
	C459.909088,228.370804 466.928040,218.477707 475.070129,209.382492 
	C475.699646,208.679306 476.313629,207.962250 476.723663,207.052719 
	C463.313690,214.267258 452.593658,224.819885 441.296967,236.081192 
	C437.481232,226.432556 435.936249,217.596039 437.109253,208.391418 
	C439.085052,192.887390 447.953491,182.656265 462.057953,176.678665 
	C477.444672,170.157608 493.671570,169.215836 510.093323,169.691010 
	C512.059326,169.747910 513.212952,170.528854 513.283752,172.638123 
	C513.903381,191.104263 512.962280,209.367264 503.947723,226.068237 
	C494.578400,243.426559 475.991150,250.139267 454.511047,244.187881 
z"/>
<path fill="#000000" opacity="1.000000" stroke="none" 
	d="
M667.401794,265.140442 
	C685.696777,258.016510 705.032227,263.399170 715.332642,278.210907 
	C726.443054,294.187408 725.081787,314.105591 711.879150,328.741119 
	C699.357910,342.621216 675.847290,344.597687 659.860657,333.114166 
	C644.040527,321.750214 639.149841,299.199951 648.653625,282.215637 
	C652.965210,274.510406 659.010742,268.869110 667.401794,265.140442 
M688.152588,284.268005 
	C680.230164,282.383881 673.329895,284.832642 668.807861,291.132996 
	C664.365295,297.322601 664.066895,304.305634 668.273315,310.753906 
	C672.517578,317.260223 678.669861,319.844269 686.334229,318.717102 
	C693.443542,317.671539 699.789246,311.377930 700.684204,304.599152 
	C701.956848,294.958893 698.384827,288.841492 688.152588,284.268005 
z"/>
<path fill="#000000" opacity="1.000000" stroke="none" 
	d="
M470.619934,290.438873 
	C465.784454,285.704803 460.427277,284.827972 454.745056,287.417053 
	C449.050171,290.011902 447.323364,295.090820 447.331451,300.988708 
	C447.347015,312.308716 447.193085,323.631226 447.396851,334.947510 
	C447.469299,338.972778 445.891663,340.276550 442.106140,340.084290 
	C438.287567,339.890320 434.450989,340.010803 430.623016,340.054962 
	C427.434967,340.091705 425.700836,338.947845 425.712280,335.392090 
	C425.786652,312.252960 425.779633,289.113373 425.712433,265.974182 
	C425.702789,262.661163 427.207977,261.590729 430.289673,261.681915 
	C434.447815,261.804932 438.612457,261.694031 442.773987,261.724030 
	C444.752991,261.738281 446.579834,261.607391 447.557251,264.199097 
	C448.566162,266.874298 450.903107,265.375031 452.740051,264.961914 
	C472.252167,260.573792 490.872528,272.288422 494.904388,291.796936 
	C496.561188,299.813629 495.958801,308.037781 495.978271,316.184204 
	C495.993011,322.343384 495.868774,328.506683 496.059998,334.660278 
	C496.178528,338.475220 494.759918,340.215454 490.851837,340.057709 
	C487.029663,339.903381 483.188812,339.882324 479.369598,340.072571 
	C475.256989,340.277405 473.749420,338.496338 473.797699,334.454865 
	C473.932922,323.136627 473.802582,311.815430 473.837372,300.495605 
	C473.848389,296.904022 473.348999,293.524506 470.619934,290.438873 
z"/>
<path fill="#000000" opacity="1.000000" stroke="none" 
	d="
M616.979553,260.766785 
	C630.928955,260.902435 629.079407,259.246521 629.200562,272.438446 
	C629.301392,283.409058 629.233765,283.351501 618.172241,283.403748 
	C612.683472,283.429718 607.194641,283.682648 601.708557,283.900909 
	C599.882019,283.973541 597.583008,284.027283 597.585876,286.477386 
	C597.588989,289.061157 599.916565,289.406342 601.963135,289.534241 
	C604.454163,289.689911 606.977661,289.505280 609.446716,289.802551 
	C622.353638,291.356628 632.051453,303.653259 631.169678,317.214386 
	C630.346985,329.867615 619.461365,340.196533 606.673950,340.319611 
	C597.183594,340.410950 587.688904,340.210541 578.201782,340.409454 
	C574.414795,340.488861 572.640686,339.384033 572.862610,335.352814 
	C573.091187,331.202911 573.071838,327.021240 572.851868,322.869843 
	C572.640625,318.882477 574.389771,317.617584 578.188232,317.708588 
	C585.843445,317.891998 593.506042,317.773499 601.165588,317.768463 
	C602.496704,317.767609 603.832092,317.768219 605.157959,317.668243 
	C606.801575,317.544342 608.202454,316.798798 608.231995,315.025879 
	C608.262268,313.211029 606.809143,312.490753 605.193787,312.375305 
	C602.540588,312.185730 599.835022,312.388184 597.227112,311.962280 
	C583.214661,309.673889 573.410095,298.377930 574.181519,285.601501 
	C575.046936,271.266418 585.970520,261.113098 600.998779,260.778809 
	C606.158081,260.664032 611.322144,260.764648 616.979553,260.766785 
z"/>
<path fill="#000000" opacity="1.000000" stroke="none" 
	d="
M539.215881,258.602478 
	C539.057373,261.994812 540.771973,262.715485 543.321838,262.682159 
	C547.650024,262.625580 551.987305,262.851013 556.306641,262.652313 
	C559.837158,262.489838 561.044373,264.031036 560.986450,267.364929 
	C560.649109,286.764496 563.533325,282.735931 545.807983,283.144226 
	C539.243958,283.295441 539.237366,283.191864 539.213135,289.868347 
	C539.202881,292.698914 539.172363,295.530304 539.224365,298.359955 
	C539.415894,308.780487 545.264221,316.593994 555.489380,318.811554 
	C560.189270,319.830841 561.404968,321.996277 561.022217,326.319244 
	C560.715088,329.789246 560.855591,333.310150 560.968811,336.802887 
	C561.080566,340.249268 559.646118,341.548309 556.163208,341.286194 
	C536.532654,339.808777 519.248718,323.075928 517.711792,303.444519 
	C516.294006,285.334503 517.294922,267.167297 517.041321,249.027390 
	C517.017456,247.321823 517.100403,245.416229 518.921387,244.739471 
	C525.248291,242.388168 531.517273,239.792725 539.208313,238.363464 
	C539.208313,245.327591 539.208313,251.740112 539.215881,258.602478 
z"/>
<path fill="#000000" opacity="1.000000" stroke="none" 
	d="
M306.296570,339.976196 
	C302.044373,339.988708 298.215637,340.018402 294.388123,339.962952 
	C288.021149,339.870758 287.811798,339.628601 287.810760,333.030121 
	C287.806427,305.566162 287.804138,278.102173 287.799133,250.638214 
	C287.798462,246.976395 287.788239,243.314560 287.779419,239.652740 
	C287.774872,237.764664 287.859894,235.760590 289.941803,235.026352 
	C296.154449,232.835312 302.425049,230.808472 308.570648,228.751785 
	C309.973419,231.297668 309.354553,233.329254 309.359802,235.274017 
	C309.447754,267.896942 309.531799,300.520172 309.435516,333.142761 
	C309.428589,335.490997 311.315643,339.194702 306.296570,339.976196 
z"/>
<path fill="#000000" opacity="1.000000" stroke="none" 
	d="
M570.030029,380.424927 
	C569.908630,378.917572 570.181580,377.641479 568.690186,376.992615 
	C565.452942,378.085052 566.514221,380.928650 566.231628,383.227295 
	C566.025146,384.906708 566.754944,387.368896 563.910217,387.262695 
	C561.559082,387.174957 562.003662,385.008636 561.811340,383.417969 
	C561.560364,381.342682 562.379272,379.098450 560.768921,376.984009 
	C556.954102,377.348114 557.453491,380.194672 557.279724,382.780518 
	C557.171753,384.387878 558.228088,387.127625 555.446228,387.068237 
	C552.828857,387.012360 553.800354,384.280273 553.582703,382.646393 
	C553.237976,380.057556 553.961182,377.368256 551.954407,374.219238 
	C556.387878,374.737122 559.869263,373.398865 563.354675,374.637024 
	C564.685425,375.109741 565.855469,375.026215 567.208557,374.692078 
	C572.031311,373.501251 574.819214,375.818359 574.735535,380.803802 
	C574.721680,381.630798 574.615601,382.464630 574.464783,383.279144 
	C574.186035,384.785004 575.006592,387.135712 572.637634,387.290558 
	C570.033997,387.460724 570.219482,385.106567 570.083252,383.309692 
	C570.020569,382.482697 570.047852,381.648865 570.030029,380.424927 
z"/>
<path fill="#000000" opacity="1.000000" stroke="none" 
	d="
M340.576111,378.122131 
	C341.745239,381.330048 342.932343,384.352020 339.690826,386.543121 
	C336.521423,388.685455 332.903961,387.931946 329.548737,386.966888 
	C327.902832,386.493469 328.129913,384.520355 328.060028,383.037140 
	C327.858002,378.747101 328.475616,374.429260 327.316528,370.226593 
	C339.162018,367.691376 342.711975,369.779633 340.576111,378.122131 
M333.090118,385.125458 
	C334.935852,386.054047 336.227234,385.226990 337.190094,383.716553 
	C337.752777,382.833862 337.661041,381.833740 337.051636,380.960754 
	C336.353546,379.960724 335.351105,379.212219 334.155426,379.647736 
	C331.583893,380.584503 332.380249,382.704681 333.090118,385.125458 
M334.461914,376.616241 
	C336.775208,376.047668 337.409302,374.593750 336.264404,372.605682 
	C335.640411,371.522186 334.222626,371.061981 333.321838,372.071472 
	C332.010468,373.541016 331.637909,375.277161 334.461914,376.616241 
z"/>
<path fill="#000000" opacity="1.000000" stroke="none" 
	d="
M422.877136,374.231842 
	C426.000092,375.492188 427.906830,385.009644 425.863892,389.177277 
	C424.248871,392.471893 421.429718,393.742371 417.459412,392.077423 
	C418.336487,390.045105 421.423645,391.225159 421.479736,388.264191 
	C416.538361,387.355194 411.868103,385.433136 413.889038,378.886292 
	C415.122009,374.892242 418.201324,373.144257 422.877136,374.231842 
M417.581055,379.196106 
	C417.193604,381.262848 417.123688,383.284485 419.531342,384.156830 
	C420.637024,384.557495 421.506256,383.724457 421.713135,382.686066 
	C422.096924,380.760101 422.674164,378.558990 420.906769,377.121857 
	C419.459503,375.945068 418.591736,377.442474 417.581055,379.196106 
z"/>
<path fill="#000000" opacity="1.000000" stroke="none" 
	d="
M381.140015,391.298523 
	C382.795441,390.481018 384.768860,390.636810 385.111603,388.459900 
	C384.885284,387.222687 383.926208,387.401001 383.148865,387.487213 
	C379.952820,387.841644 378.029510,386.257690 377.175629,383.388275 
	C376.243835,380.257172 376.917511,377.448120 379.583496,375.332458 
	C382.246460,373.219147 386.287170,372.783173 387.899506,374.715485 
	C391.261444,378.744690 389.174835,384.200714 389.036041,389.008667 
	C388.953827,391.856567 385.833832,392.499847 383.330078,392.907806 
	C382.322693,393.071930 381.366608,392.655548 381.140015,391.298523 
M383.508392,384.344299 
	C386.913300,382.559906 385.947479,379.745148 384.890778,377.229401 
	C384.377441,376.007355 382.792175,376.279755 382.009674,377.309448 
	C380.083832,379.843658 379.660583,382.335022 383.508392,384.344299 
z"/>
<path fill="#000000" opacity="1.000000" stroke="none" 
	d="
M456.728821,374.177734 
	C459.677887,374.051117 462.984497,372.859528 464.277191,375.771301 
	C465.756775,379.104095 466.151123,383.466858 464.135254,386.330627 
	C462.269592,388.981049 457.940552,388.478943 455.159363,387.097961 
	C451.915161,385.487152 451.027222,382.064758 452.291565,378.480560 
	C452.983795,376.518097 454.403015,375.138672 456.728821,374.177734 
M458.993134,384.067780 
	C461.450958,381.942230 461.207703,379.442657 459.674438,377.033691 
	C459.112000,376.150055 457.667755,376.289825 457.111938,377.262970 
	C455.737885,379.668671 454.995026,382.158783 457.850189,384.173645 
	C457.970886,384.258820 458.172180,384.229828 458.993134,384.067780 
z"/>
<path fill="#000000" opacity="1.000000" stroke="none" 
	d="
M527.675049,379.226776 
	C526.502014,382.016235 528.960144,386.868042 525.663818,386.805328 
	C521.720825,386.730316 524.207336,382.031982 523.769592,379.427612 
	C523.257568,376.381653 524.168213,373.160034 522.482666,370.213257 
	C526.852478,368.191101 527.270081,371.034302 527.652222,373.699219 
	C534.967957,374.455170 536.962952,376.766418 536.402283,383.771606 
	C536.272888,385.388458 536.389526,387.414001 533.953552,387.322937 
	C531.859375,387.244629 531.948792,385.457581 531.877991,383.969635 
	C531.814880,382.642639 531.882996,381.309387 531.820740,379.982300 
	C531.767212,378.838348 531.874146,377.422211 530.469360,377.074585 
	C529.148254,376.747650 528.379700,377.800507 527.675049,379.226776 
z"/>
<path fill="#000000" opacity="1.000000" stroke="none" 
	d="
M447.426086,387.210480 
	C444.739594,384.075104 447.184906,380.133392 444.980011,376.808533 
	C441.479828,377.979675 442.295685,380.884735 442.088257,383.327637 
	C441.954132,384.907440 442.392578,387.140076 440.075562,387.227203 
	C437.310364,387.331207 437.832703,384.865662 437.768433,383.159027 
	C437.663666,380.377808 437.740173,377.589783 437.740173,374.553619 
	C440.298798,373.420197 443.164764,374.226044 445.865570,374.173737 
	C448.326294,374.126068 450.537689,376.145142 450.209473,378.713226 
	C449.835114,381.642365 452.850281,385.770264 447.426086,387.210480 
z"/>
<path fill="#000000" opacity="1.000000" stroke="none" 
	d="
M364.290527,373.928040 
	C365.305603,374.028381 365.960175,374.193878 366.619751,374.216949 
	C374.735809,374.501251 376.003052,375.909180 375.270721,383.896149 
	C375.137085,385.353607 375.353516,387.256805 373.234497,387.255554 
	C370.931854,387.254211 371.535461,385.322388 371.492706,383.893829 
	C371.421631,381.519257 372.524475,378.872375 369.807098,376.852600 
	C366.837280,377.673370 367.297272,380.170166 367.062317,382.392059 
	C366.857208,384.331604 367.921417,387.519592 364.565887,387.275055 
	C361.337311,387.039764 362.742889,383.980804 362.620941,382.019562 
	C362.498077,380.043823 362.910187,378.052429 362.162476,376.096130 
	C361.563782,374.529663 362.553925,374.010437 364.290527,373.928040 
z"/>
<path fill="#000000" opacity="1.000000" stroke="none" 
	d="
M406.122101,377.020996 
	C402.438232,378.133392 403.578552,381.001373 403.286224,383.320312 
	C403.096619,384.824463 403.906708,387.111786 401.398560,387.169769 
	C398.850983,387.228699 399.399139,385.054993 399.498474,383.472137 
	C399.684021,380.514404 399.667267,377.584869 397.885651,374.123779 
	C401.842041,374.123779 404.905243,373.885986 407.910828,374.199921 
	C410.262115,374.445526 411.774445,376.225616 411.964996,378.603363 
	C412.184418,381.341797 413.072083,384.220764 411.286285,386.769653 
	C411.017029,387.153992 410.058014,387.327301 409.516235,387.195251 
	C408.130096,386.857422 408.098145,385.593140 407.909760,384.429077 
	C407.507538,381.943726 408.919342,379.097870 406.122101,377.020996 
z"/>
<path fill="#000000" opacity="1.000000" stroke="none" 
	d="
M475.898987,380.963745 
	C475.776184,378.605408 475.661377,376.666016 475.547058,374.734955 
	C478.151764,374.639465 478.151764,374.639465 481.223297,384.532928 
	C484.962616,384.089081 484.501068,381.257843 484.650726,378.729309 
	C484.741547,377.194000 484.070038,374.792816 486.387360,374.727661 
	C489.311462,374.645386 488.255829,377.354858 488.249817,378.903595 
	C488.239136,381.652557 488.948395,384.518951 487.594177,387.124603 
	C477.519348,388.263367 476.805267,387.907654 475.898987,380.963745 
z"/>
<path fill="#000000" opacity="1.000000" stroke="none" 
	d="
M541.858826,387.332581 
	C537.324280,383.804352 536.481140,379.972992 539.165527,376.601379 
	C541.746948,373.359222 546.004700,373.113495 549.275513,375.977600 
	C551.770142,378.162079 552.074707,380.919556 550.850159,383.685852 
	C549.205139,387.402191 546.181641,388.673737 541.858826,387.332581 
M546.111450,384.250244 
	C547.364624,382.549072 547.831787,380.716827 546.974731,378.696930 
	C546.335388,377.190155 545.368530,375.914062 543.644653,377.132629 
	C541.928223,378.346039 541.112793,380.206238 541.799377,382.329529 
	C542.372253,384.101288 543.132141,385.904724 546.111450,384.250244 
z"/>
<path fill="#000000" opacity="1.000000" stroke="none" 
	d="
M511.864014,386.331665 
	C508.353516,388.462402 505.115906,388.670044 502.829376,385.346344 
	C500.776733,382.362671 500.988647,378.977448 503.370941,376.149902 
	C505.228668,373.944977 507.688080,373.156097 510.501099,374.553986 
	C511.900635,375.249451 513.130310,376.142456 513.028137,377.877716 
	C512.908325,379.913727 511.258057,379.936218 509.755676,380.106140 
	C508.159943,380.286682 505.997131,380.088196 506.484802,382.621490 
	C506.894043,384.747253 508.589905,384.796997 510.406372,384.196411 
	C512.286560,383.574738 513.702637,383.543732 511.864014,386.331665 
z"/>
<path fill="#000000" opacity="1.000000" stroke="none" 
	d="
M583.134521,384.609283 
	C584.537109,384.786316 585.679688,383.835541 586.928711,384.993835 
	C584.953552,388.212799 582.082642,388.463409 579.252563,387.062805 
	C575.967590,385.437073 575.243774,382.298615 576.341919,378.976074 
	C577.431946,375.677826 579.844360,373.558289 583.451477,374.074158 
	C586.046570,374.445343 588.090698,375.934174 587.252625,379.177551 
	C579.503723,381.338226 579.503723,381.338226 583.134521,384.609283 
z"/>
<path fill="#000000" opacity="1.000000" stroke="none" 
	d="
M466.537476,381.097412 
	C466.602081,377.119751 467.075958,373.509064 465.450928,370.102142 
	C470.227692,369.035492 472.591064,371.952271 471.122650,376.717896 
	C470.003448,380.350220 469.590210,383.852478 473.282257,386.470764 
	C469.092743,388.617188 467.080719,387.059723 466.537476,381.097412 
z"/>
<path fill="#000000" opacity="1.000000" stroke="none" 
	d="
M343.918030,375.078400 
	C345.821747,373.335144 347.890137,374.102905 349.818390,374.022491 
	C351.860352,373.937378 353.596497,374.877441 353.527283,377.112793 
	C353.425964,380.383728 350.845886,378.789856 349.153564,378.759155 
	C348.896149,380.930664 348.671936,382.898682 348.426453,384.864014 
	C348.277863,386.053558 348.058960,387.307526 346.494415,387.242859 
	C344.978088,387.180176 344.729431,385.971344 344.695038,384.750427 
	C344.606842,381.618073 344.865356,378.454193 343.918030,375.078400 
z"/>
<path fill="#000000" opacity="1.000000" stroke="none" 
	d="
M396.560303,384.366638 
	C396.565948,385.923584 396.609985,387.214630 395.045563,387.427521 
	C393.941010,387.577820 392.976959,386.996185 392.890411,385.845154 
	C392.559296,381.443024 392.340607,377.032288 392.096893,372.623810 
	C391.984375,370.588959 392.880798,369.287994 395.006592,369.596100 
	C396.977753,369.881775 396.854095,371.426666 396.762054,373.067871 
	C396.558136,376.704041 396.609680,380.354492 396.560303,384.366638 
z"/>
<path fill="#000000" opacity="1.000000" stroke="none" 
	d="
M359.161774,370.112854 
	C359.683807,374.919312 359.988159,379.492340 360.131348,384.070435 
	C360.177734,385.553223 359.950134,387.269836 357.887115,387.295593 
	C355.724152,387.322601 355.695923,385.558990 355.750366,384.085541 
	C355.896057,380.142242 354.475952,376.262756 355.577118,372.248444 
	C356.119385,370.271667 356.699432,369.181488 359.161774,370.112854 
z"/>
<path fill="#000000" opacity="1.000000" stroke="none" 
	d="
M491.711731,384.551331 
	C491.663239,381.022339 492.014923,377.869568 490.364502,375.057861 
	C492.789764,373.128082 495.179047,374.052124 497.375336,374.120361 
	C499.355133,374.181854 501.119781,375.362915 500.522491,377.629883 
	C499.752502,380.552277 497.780853,378.824646 496.162231,378.180695 
	C494.644867,380.354004 495.612671,382.753876 495.295502,384.977203 
	C495.153442,385.973114 495.101868,387.056763 493.793549,387.176392 
	C492.229187,387.319458 491.884521,386.202881 491.711731,384.551331 
z"/>
</svg>